<?xml version="1.0" encoding="UTF-8"?>
<svg width="640px" height="160px" viewBox="0 0 640 160" version="1.1" xmlns="http://www.w3.org/2000/svg" xmlns:xlink="http://www.w3.org/1999/xlink">
    <!-- Generator: Sketch 43.1 (39012) - http://www.bohemiancoding.com/sketch -->
    <title>Slice</title>
    <desc>Created with Sketch.</desc>
    <defs>
        <rect id="path-1" x="1.56319402e-13" y="1.33582034e-12" width="100.417364" height="118.138076" rx="2"></rect>
        <rect id="path-2" x="7.53130233" y="8.04344346" width="85.3547598" height="85.4615867" rx="2"></rect>
    </defs>
    <g id="Page-1" stroke="none" stroke-width="1" fill="none" fill-rule="evenodd">
        <path d="M256.752,91.04 L259.92,75.2 L228.672,75.2 L232.848,54.032 L269.856,54.032 L273.024,36.464 L215.28,36.464 L198,125.744 L218.88,125.744 L225.648,91.04 L256.752,91.04 Z M277.049602,97.52 C277.049602,72.608 293.753602,50.576 317.225602,50.576 C334.793602,50.576 345.881602,62.096 345.881602,80.816 C345.881602,105.728 329.177602,127.76 305.705602,127.76 C288.137602,127.76 277.049602,116.24 277.049602,97.52 Z M325.577602,83.264 C325.577602,72.752 321.257602,66.992 314.633602,66.992 C304.265602,66.992 297.353602,81.104 297.353602,95.072 C297.353602,105.584 301.673602,111.344 308.297602,111.344 C318.665602,111.344 325.577602,97.232 325.577602,83.264 Z M418.883204,118.112 L418.019204,108.32 C391.235204,113.36 387.347204,110.48 390.227204,98.96 L396.851204,68.72 L421.907204,68.72 L424.787204,53.312 L400.163204,53.312 L404.771204,32 L389.795204,33.152 L376.259204,53.312 L367.763204,53.312 L364.019204,68.72 L377.123204,68.72 L370.211204,100.112 C364.595204,124.88 381.011204,138.272 418.883204,118.112 Z M436.012806,97.52 C436.012806,72.608 452.716806,50.576 476.188806,50.576 C493.756806,50.576 504.844806,62.096 504.844806,80.816 C504.844806,105.728 488.140806,127.76 464.668806,127.76 C447.100806,127.76 436.012806,116.24 436.012806,97.52 Z M484.540806,83.264 C484.540806,72.752 480.220806,66.992 473.596806,66.992 C463.228806,66.992 456.316806,81.104 456.316806,95.072 C456.316806,105.584 460.636806,111.344 467.260806,111.344 C477.628806,111.344 484.540806,97.232 484.540806,83.264 Z M572.662408,125.744 L577.414408,108.176 L540.550408,108.896 L583.606408,69.44 L586.918408,52.736 L529.174408,52.736 L524.422408,70.304 L560.422408,69.584 L517.078408,109.04 L513.766408,125.744 L572.662408,125.744 Z" id="Fotoz" fill="#3A484D"></path>
        <g id="Group-2" transform="translate(94.289337, 79.949192) rotate(-8.000000) translate(-94.289337, -79.949192) translate(43.789337, 20.449192)">
            <g id="Rectangle">
                <use fill="#F6F6F6" fill-rule="evenodd" xlink:href="#path-1"></use>
                <rect stroke="#979797" stroke-width="1" x="0.5" y="0.5" width="99.4173644" height="117.138076" rx="2"></rect>
            </g>
            <g id="Rectangle-2">
                <use fill="#D8D8D8" fill-rule="evenodd" xlink:href="#path-2"></use>
                <rect stroke="#979797" stroke-width="1" x="8.03130233" y="8.54344346" width="84.3547598" height="84.4615867" rx="2"></rect>
            </g>
            <g id="Group" transform="translate(49.977928, 50.733920) rotate(16.000000) translate(-49.977928, -50.733920) translate(10.477928, 12.233920)" fill-opacity="0.790000021">
                <path d="M39.494313,38.7410999 C39.494313,38.7410999 50.3944239,33.8548462 50.3944239,27.8273468 C50.3944239,21.7998473 45.514278,-1.59872116e-14 39.494313,-1.59872116e-14 C33.4743479,-1.59872116e-14 28.594202,21.7998473 28.594202,27.8273468 C28.594202,33.8548462 39.494313,38.7410999 39.494313,38.7410999 Z" id="Oval" fill="#BD0FE1"></path>
                <path d="M39.494313,76.9392358 C39.494313,76.9392358 50.3944239,72.0529821 50.3944239,66.0254827 C50.3944239,59.9979833 45.514278,38.1981359 39.494313,38.1981359 C33.4743479,38.1981359 28.594202,59.9979833 28.594202,66.0254827 C28.594202,72.0529821 39.494313,76.9392358 39.494313,76.9392358 Z" id="Oval-Copy-3" fill="#7ED321" transform="translate(39.494313, 57.568686) scale(1, -1) translate(-39.494313, -57.568686) "></path>
                <path d="M57.8503816,57.707859 C57.8503816,57.707859 68.7504926,52.8216053 68.7504926,46.7941059 C68.7504926,40.7666064 63.8703467,18.9667591 57.8503816,18.9667591 C51.8304166,18.9667591 46.9502707,40.7666064 46.9502707,46.7941059 C46.9502707,52.8216053 57.8503816,57.707859 57.8503816,57.707859 Z" id="Oval-Copy" fill="#F6A623" transform="translate(57.850382, 38.337309) rotate(90.000000) translate(-57.850382, -38.337309) "></path>
                <path d="M20.0846997,58.1750055 C20.0846997,58.1750055 30.9848107,53.2887518 30.9848107,47.2612524 C30.9848107,41.233753 26.1046648,19.4339056 20.0846997,19.4339056 C14.0647347,19.4339056 9.1845888,41.233753 9.1845888,47.2612524 C9.1845888,53.2887518 20.0846997,58.1750055 20.0846997,58.1750055 Z" id="Oval-Copy-2" fill="#4990E2" transform="translate(20.084700, 38.804456) scale(-1, 1) rotate(90.000000) translate(-20.084700, -38.804456) "></path>
            </g>
        </g>
    </g>
</svg>